Coordinates
version=1
nRows=29
nColumns=24
inDegrees=yes

Units are S.I. units (second, meters, Newtons, ...)
Angles are in degrees.

endheader
time	pelvis_tilt	pelvis_list	pelvis_rotation	pelvis_tx	pelvis_ty	pelvis_tz	hip_flexion_r	hip_adduction_r	hip_rotation_r	knee_angle_r	ankle_angle_r	subtalar_angle_r	mtp_angle_r	hip_flexion_l	hip_adduction_l	hip_rotation_l	knee_angle_l	ankle_angle_l	subtalar_angle_l	mtp_angle_l	lumbar_extension	lumbar_bending	lumbar_rotation
      0.89266667	      1.55257960	     -4.85959800	     -1.58514456	     -0.42763387	      1.02143158	      0.30326466	      6.99286737	      8.03130041	     -2.79981772	     -9.77848510	     -5.15440368	    -14.04839290	     -2.22131385	     13.85847512	     -9.90764453	     -6.18892211	    -69.66852361	      1.73938554	     -8.61305893	     -8.07391573	    -13.44687447	      5.95493864	      5.26679546
      0.89683333	      1.58016352	     -4.76221475	     -1.69432424	     -0.42241049	      1.02218693	      0.30360677	      6.53301192	      7.94467607	     -2.71171868	     -9.58540595	     -5.04873883	    -13.99564106	     -2.21754318	     14.43458975	     -9.83694668	     -6.28140001	    -69.49349856	      2.02413933	     -8.69438330	     -8.08924089	    -13.47458147	      5.82999395	      5.32756933
      0.90100000	      1.66569015	     -4.58882088	     -1.94218830	     -0.41722167	      1.02305431	      0.30422034	      6.04666559	      7.78623210	     -2.51973799	     -9.48109965	     -4.82925974	    -13.75859912	     -2.20022331	     14.86592072	     -9.73026677	     -6.55585993	    -69.18918050	      2.27728956	     -8.71963997	     -8.17911424	    -13.60757991	      5.54598476	      5.68417049
      0.90516667	      1.75883257	     -4.44450758	     -2.14847291	     -0.41202597	      1.02389718	      0.30473198	      5.53321785	      7.65247551	     -2.34542780	     -9.32618158	     -4.68629174	    -13.64041068	     -2.18365791	     15.29287526	     -9.64472678	     -6.79382468	    -68.84143364	      2.53317625	     -8.77734691	     -8.27604405	    -13.73388379	      5.32853819	      5.94087186
      0.90933333	      1.82755251	     -4.30732415	     -2.33336247	     -0.40682592	      1.02467156	      0.30517143	      5.04810679	      7.51759369	     -2.20791050	     -9.17241172	     -4.54273514	    -13.50659059	     -2.16854202	     15.74053915	     -9.55844729	     -7.01038633	    -68.44013199	      2.78006568	     -8.84127403	     -8.35812514	    -13.83259776	      5.13206906	      6.13743363
      0.91350000	      1.92374040	     -4.17614286	     -2.52876483	     -0.40160614	      1.02545957	      0.30565834	      4.53010281	      7.38848207	     -2.07483944	     -9.01353371	     -4.38449854	    -13.36360010	     -2.15100683	     16.13426344	     -9.49473334	     -7.26178645	    -67.97466567	      3.00159216	     -8.90924963	     -8.45058980	    -13.95021593	      4.91752152	      6.36744133
      0.91766667	      2.04055765	     -4.04244369	     -2.72171092	     -0.39640594	      1.02625268	      0.30608763	      3.99068180	      7.24850625	     -1.93809321	     -8.85119922	     -4.23530744	    -13.22253680	     -2.13280937	     16.48862664	     -9.42067979	     -7.51582395	    -67.44592146	      3.21510610	     -8.97250497	     -8.54319725	    -14.09776005	      4.71541863	      6.58459731
      0.92183333	      2.18153922	     -3.92842104	     -2.92125095	     -0.39120990	      1.02704709	      0.30654776	      3.42053472	      7.12942979	     -1.78685632	     -8.67773028	     -4.09682552	    -13.11834265	     -2.10723840	     16.79868476	     -9.37858056	     -7.79307394	    -66.86670290	      3.42839209	     -9.06684006	     -8.67998877	    -14.27476756	      4.52665608	      6.83851637
      0.92600000	      2.25051825	     -3.79557614	     -3.10203456	     -0.38598183	      1.02770024	      0.30693639	      2.93904592	      6.98250422	     -1.68663329	     -8.52618894	     -3.94107910	    -12.96261165	     -2.09025368	     17.17693558	     -9.30734750	     -8.04630990	    -66.23143008	      3.60890803	     -9.09724352	     -8.76067458	    -14.35378180	      4.32078655	      6.98982197
      0.93016667	      2.39631769	     -3.67189830	     -3.30175978	     -0.38076769	      1.02845210	      0.30735455	      2.36695567	      6.84088685	     -1.55420303	     -8.35641506	     -3.79342527	    -12.81795108	     -2.07085422	     17.43983446	     -9.25109614	     -8.33879696	    -65.52770505	      3.78926622	     -9.17699757	     -8.85869769	    -14.52856207	      4.11606361	      7.22678684
      0.93433333	      2.55009617	     -3.57236403	     -3.50243330	     -0.37557109	      1.02917050	      0.30777143	      1.78476725	      6.72363142	     -1.39902153	     -8.18168005	     -3.65437087	    -12.72372386	     -2.04516050	     17.68004429	     -9.22534563	     -8.63771914	    -64.78203056	      3.96974577	     -9.25839849	     -8.99550936	    -14.71676485	      3.94805653	      7.47393252
      0.93850000	      2.66995572	     -3.45609942	     -3.68815653	     -0.37034806	      1.02980533	      0.30813838	      1.24546650	      6.58164256	     -1.28241516	     -8.01878843	     -3.49975389	    -12.58425360	     -2.02601886	     17.94178406	     -9.17478003	     -8.92427898	    -63.97646790	      4.10704102	     -9.29226747	     -9.09600834	    -14.85592573	      3.75588548	      7.63621937
      0.94266667	      2.83473347	     -3.36465451	     -3.88035792	     -0.36514551	      1.03047171	      0.30850526	      0.65165911	      6.46186399	     -1.14112213	     -7.84049190	     -3.37127015	    -12.48326082	     -2.00240929	     18.13267015	     -9.15114431	     -9.22763316	    -63.12473508	      4.28065542	     -9.36644608	     -9.23144165	    -15.05238946	      3.59320695	      7.87984701
      0.94683333	      2.86306234	     -3.27131916	     -4.01956546	     -0.35990646	      1.03086835	      0.30872305	      0.21651050	      6.33964182	     -1.07710067	     -7.68130302	     -3.27750812	    -12.39011033	     -1.99314277	     18.48303218	     -9.10297798	     -9.45232284	    -62.25046427	      4.46033625	     -9.38897695	     -9.28380965	    -15.07571755	      3.46227722	      7.96288891
      0.95100000	      3.05906473	     -3.17742872	     -4.24441272	     -0.35470749	      1.03153404	      0.30916037	     -0.40703114	      6.20944801	     -0.89190034	     -7.51435244	     -3.06805638	    -12.23776485	     -1.97348559	     18.58359201	     -9.09170342	     -9.81481545	    -61.27010609	      4.52038802	     -9.45315893	     -9.39846508	    -15.31177021	      3.27066764	      8.23497005
      0.95516667	      3.21082870	     -3.10142839	     -4.42390964	     -0.34948918	      1.03207097	      0.30948581	     -0.98812394	      6.09659667	     -0.74812964	     -7.33037982	     -2.95126869	    -12.16703346	     -1.95736484	     18.73288454	     -9.07971116	    -10.12042466	    -60.26593242	      4.65471545	     -9.47938452	     -9.51409244	    -15.48579057	      3.12203893	      8.42199054
      0.95933333	      3.31540268	     -3.03656027	     -4.59550370	     -0.34427588	      1.03248779	      0.30976241	     -1.51031665	      5.99345078	     -0.61758643	     -7.16249678	     -2.81297962	    -12.07934376	     -1.94282571	     18.92329368	     -9.07393705	    -10.41304347	    -59.22597721	      4.77293386	     -9.52377346	     -9.62820334	    -15.60840592	      2.99480228	      8.59860046
      0.96350000	      3.41066992	     -2.97961381	     -4.75896719	     -0.33903234	      1.03285038	      0.31003286	     -2.02337090	      5.89714502	     -0.50894847	     -6.99555346	     -2.68300503	    -12.00548220	     -1.93119846	     19.10357366	     -9.07733931	    -10.70843173	    -58.13916773	      4.88543759	     -9.55417670	     -9.73253180	    -15.70659362	      2.87097119	      8.74921744
      0.96766667	      3.44404281	     -2.93137361	     -4.88990397	     -0.33380444	      1.03306408	      0.31018374	     -2.46704933	      5.80960345	     -0.41778695	     -6.82631306	     -2.59355548	    -11.94058797	     -1.92451230	     19.35074579	     -9.06655793	    -10.94781564	    -57.02537161	      5.03861559	     -9.58698561	     -9.80356116	    -15.74687276	      2.78700263	      8.85785197
      0.97183333	      3.61946547	     -2.90425460	     -5.07366075	     -0.32862153	      1.03348308	      0.31049038	     -3.07430966	      5.73490546	     -0.23505009	     -6.64300856	     -2.43460257	    -11.87212488	     -1.91268065	     19.39227929	     -9.10083897	    -11.27944458	    -55.83123189	      5.12568716	     -9.63013046	     -9.96412433	    -15.96088972	      2.68650279	      9.10512562
      0.97600000	      3.66896141	     -2.87564203	     -5.22312819	     -0.32342011	      1.03364448	      0.31069142	     -3.53003807	      5.66424650	     -0.11107939	     -6.49054775	     -2.27596741	    -11.80116969	     -1.90562784	     19.57437978	     -9.12005102	    -11.55973283	    -54.61475794	      5.19298664	     -9.67279908	    -10.08233913	    -16.02197512	      2.61220343	      9.19565335
      0.98016667	      3.65213039	     -2.87068716	     -5.30334363	     -0.31817167	      1.03364278	      0.31072338	     -3.92231882	      5.62249274	     -0.07053453	     -6.32242311	     -2.19802594	    -11.76513141	     -1.90365631	     19.83502749	     -9.13310352	    -11.74840056	    -53.38093080	      5.32334131	     -9.68080275	    -10.14121980	    -15.98978041	      2.58726157	      9.26161803
      0.98433333	      3.75105571	     -2.85131130	     -5.48315793	     -0.31297569	      1.03383327	      0.31097602	     -4.43578054	      5.55097681	      0.09408936	     -6.16265808	     -2.00024074	    -11.66714197	     -1.89971117	     19.90084860	     -9.16648173	    -12.09120710	    -52.04918282	      5.36349249	     -9.75851025	    -10.27528536	    -16.12442135	      2.50907840	      9.43389660
      0.98850000	      3.75936202	     -2.85538629	     -5.59842135	     -0.30774260	      1.03381790	      0.31108321	     -4.85393446	      5.51383491	      0.18627903	     -5.99975489	     -1.88019798	    -11.63628635	     -1.89966342	     20.07297354	     -9.19798408	    -12.34484893	    -50.70245138	      5.43709694	     -9.80144670	    -10.39329562	    -16.12698228	      2.47832436	      9.52117150
      0.99266667	      3.68899415	     -2.89519883	     -5.64882713	     -0.30250683	      1.03359392	      0.31103830	     -5.19604028	      5.52315017	      0.22126717	     -5.82042230	     -1.79549477	    -11.60522059	     -1.90020558	     20.34805319	     -9.24332480	    -12.50859537	    -49.35929387	      5.55227721	     -9.81198702	    -10.44426525	    -16.05696502	      2.52432919	      9.56001012
      0.99683333	      3.75515230	     -2.90828307	     -5.80394775	     -0.29730881	      1.03360864	      0.31121768	     -5.67211408	      5.48270035	      0.35184212	     -5.66982624	     -1.59940711	    -11.51853839	     -1.90345355	     20.39432300	     -9.29169665	    -12.84130502	    -47.90179103	      5.58059369	     -9.91157391	    -10.58284870	    -16.14893255	      2.48996351	      9.69153899
      1.00100000	      3.65146426	     -2.95771521	     -5.84289689	     -0.29205488	      1.03327020	      0.31113121	     -5.97657049	      5.50408184	      0.36588890	     -5.49727226	     -1.52469881	    -11.50918537	     -1.90583828	     20.66208816	     -9.33375870	    -13.00383954	    -46.46197292	      5.66536304	     -9.91545853	    -10.63277803	    -16.02788274	      2.55016932	      9.71275607
      1.00516667	      3.68394836	     -2.99133126	     -5.97723041	     -0.28685397	      1.03314984	      0.31122919	     -6.41949075	      5.48398293	      0.47641943	     -5.34281045	     -1.33075601	    -11.41654771	     -1.91356166	     20.71105581	     -9.38463948	    -13.32065752	    -44.92639084	      5.68564881	    -10.02501892	    -10.77916679	    -16.08462043	      2.55163433	      9.81746217
      1.00933333	      3.61011477	     -3.05050209	     -6.04437631	     -0.28160254	      1.03279557	      0.31120625	     -6.75801773	      5.50938686	      0.52419318	     -5.17450513	     -1.20775298	    -11.38810172	     -1.92379810	     20.88708524	     -9.44020940	    -13.54523266	    -43.38650731	      5.72893303	    -10.08197512	    -10.90213804	    -16.00793286	      2.60815738	      9.85298618
